G75*
%MOIN*%
%OFA0B0*%
%FSLAX24Y24*%
%IPPOS*%
%LPD*%
%AMOC8*
5,1,8,0,0,1.08239X$1,22.5*
%
%ADD10OC8,0.0600*%
%ADD11R,0.0591X0.0512*%
%ADD12R,0.0394X0.0433*%
%ADD13R,0.0433X0.0394*%
%ADD14OC8,0.0709*%
%ADD15C,0.0160*%
%ADD16C,0.0240*%
%ADD17C,0.1266*%
%ADD18C,0.0270*%
D10*
X001650Y002750D03*
X000650Y003750D03*
X001650Y004750D03*
X002650Y006750D03*
X003650Y006750D03*
X004650Y006750D03*
X005650Y006750D03*
X006650Y006750D03*
X007650Y006750D03*
X008650Y006750D03*
X009650Y006750D03*
D11*
X010100Y004724D03*
X010100Y003976D03*
D12*
X007650Y005065D03*
X007650Y005735D03*
D13*
X010100Y003335D03*
X010100Y002665D03*
D14*
X009150Y003150D03*
X009150Y004150D03*
X009150Y005150D03*
X006150Y002900D03*
X006150Y001500D03*
X009150Y001150D03*
X009150Y002150D03*
X003150Y002150D03*
X003150Y001150D03*
X003150Y003150D03*
X003150Y004150D03*
X003150Y005150D03*
D15*
X001650Y004750D02*
X003150Y003250D01*
X003150Y003150D01*
X001650Y002750D02*
X003150Y001250D01*
X003150Y001150D01*
X003150Y002150D02*
X001550Y003750D01*
X000650Y003750D01*
X009150Y002150D02*
X009585Y002150D01*
X010100Y002665D01*
X010100Y003335D02*
X010100Y003976D01*
X010100Y004724D02*
X010126Y004750D01*
X010650Y004750D01*
D16*
X009650Y005650D02*
X009150Y005150D01*
X009650Y005650D02*
X009650Y006750D01*
X007650Y006750D02*
X007650Y005735D01*
X007650Y005065D02*
X007650Y004850D01*
X008350Y004150D01*
X009150Y004150D01*
X006150Y002900D02*
X006150Y006200D01*
X005650Y006750D01*
X005250Y006150D02*
X005250Y002400D01*
X006150Y001500D01*
X005650Y000850D02*
X008850Y000850D01*
X009150Y001150D01*
X005650Y000850D02*
X004450Y002150D01*
X004450Y006050D01*
X003650Y006750D01*
X002650Y006750D02*
X002350Y006450D01*
X002350Y004950D01*
X003150Y004150D01*
X005250Y006150D02*
X004650Y006750D01*
D17*
X001250Y001250D03*
X001250Y006250D03*
X011050Y006250D03*
X011050Y001250D03*
D18*
X010650Y004750D03*
M02*
