%
M48
M72
T01C0.0130
T02C0.0400
T03C0.0472
T04C0.0866
%
T01
X10650Y4750
T02
X9650Y6750
X8650Y6750
X7650Y6750
X6650Y6750
X5650Y6750
X4650Y6750
X3650Y6750
X2650Y6750
X1650Y4750
X650Y3750
X1650Y2750
T03
X3150Y3150
X3150Y4150
X3150Y5150
X6150Y2900
X6150Y1500
X9150Y1150
X9150Y2150
X9150Y3150
X9150Y4150
X9150Y5150
X3150Y2150
X3150Y1150
T04
X1250Y1250
X1250Y6250
X11050Y6250
X11050Y1250
M30
