G75*
%MOIN*%
%OFA0B0*%
%FSLAX24Y24*%
%IPPOS*%
%LPD*%
%AMOC8*
5,1,8,0,0,1.08239X$1,22.5*
%
%ADD10OC8,0.0600*%
%ADD11R,0.0591X0.0512*%
%ADD12R,0.0394X0.0433*%
%ADD13R,0.0433X0.0394*%
%ADD14OC8,0.0709*%
%ADD15C,0.0160*%
%ADD16C,0.0240*%
%ADD17C,0.1266*%
%ADD18C,0.0270*%
D10*
X001650Y002750D03*
X000650Y003750D03*
X001650Y004750D03*
X003650Y006550D03*
X004650Y006550D03*
X005650Y006550D03*
X006650Y006550D03*
X007650Y006550D03*
X008650Y006550D03*
D11*
X010100Y004724D03*
X010100Y003976D03*
D12*
X006650Y005165D03*
X006650Y005835D03*
D13*
X010100Y003335D03*
X010100Y002665D03*
D14*
X009150Y003150D03*
X009150Y004150D03*
X009150Y005150D03*
X009150Y002150D03*
X009150Y001150D03*
X003150Y001150D03*
X003150Y002150D03*
X003150Y003150D03*
X003150Y004150D03*
X003150Y005150D03*
D15*
X001650Y004750D02*
X003150Y003250D01*
X003150Y003150D01*
X001650Y002750D02*
X003150Y001250D01*
X003150Y001150D01*
X003150Y002150D02*
X001550Y003750D01*
X000650Y003750D01*
X009150Y002150D02*
X009585Y002150D01*
X010100Y002665D01*
X010100Y003335D02*
X010100Y003976D01*
X010100Y004724D02*
X010126Y004750D01*
X010650Y004750D01*
D16*
X009150Y005150D02*
X008650Y005650D01*
X008650Y006550D01*
X006650Y006550D02*
X006650Y005835D01*
X006650Y005165D02*
X006650Y004900D01*
X007400Y004150D01*
X009150Y004150D01*
X009150Y001150D02*
X004650Y005550D01*
X004650Y006550D01*
X003950Y006250D02*
X003950Y005050D01*
X003150Y004150D01*
X003950Y006250D02*
X003650Y006550D01*
D17*
X001250Y001250D03*
X001250Y006250D03*
X011050Y006250D03*
X011050Y001250D03*
D18*
X010650Y004750D03*
M02*
