G75*
%MOIN*%
%OFA0B0*%
%FSLAX24Y24*%
%IPPOS*%
%LPD*%
%AMOC8*
5,1,8,0,0,1.08239X$1,22.5*
%
%ADD10C,0.0050*%
%ADD11C,0.0040*%
%ADD12C,0.0059*%
D10*
X003618Y000435D02*
X003618Y000600D01*
X003673Y000655D01*
X003728Y000600D01*
X003728Y000435D01*
X003838Y000435D02*
X003838Y000655D01*
X003783Y000655D01*
X003728Y000600D01*
X003968Y000600D02*
X003968Y000490D01*
X004023Y000435D01*
X004133Y000435D01*
X004188Y000490D01*
X004188Y000600D01*
X004133Y000655D01*
X004023Y000655D01*
X003968Y000600D01*
X004318Y000655D02*
X004483Y000655D01*
X004538Y000600D01*
X004538Y000490D01*
X004483Y000435D01*
X004318Y000435D01*
X004658Y000435D02*
X004713Y000435D01*
X004713Y000490D01*
X004658Y000490D01*
X004658Y000435D01*
X004843Y000490D02*
X004898Y000545D01*
X005008Y000545D01*
X005063Y000600D01*
X005008Y000655D01*
X004843Y000655D01*
X004843Y000490D02*
X004898Y000435D01*
X005063Y000435D01*
X005186Y000435D02*
X005241Y000490D01*
X005241Y000710D01*
X005296Y000655D02*
X005186Y000655D01*
X005426Y000600D02*
X005426Y000435D01*
X005646Y000435D02*
X005646Y000765D01*
X005591Y000655D02*
X005481Y000655D01*
X005426Y000600D01*
X005591Y000655D02*
X005646Y000600D01*
X005776Y000655D02*
X005941Y000655D01*
X005996Y000600D01*
X005996Y000490D01*
X005941Y000435D01*
X005776Y000435D01*
X005776Y000380D02*
X005776Y000655D01*
X005776Y000380D02*
X005831Y000325D01*
X005886Y000325D01*
X006126Y000435D02*
X006126Y000655D01*
X006346Y000655D02*
X006346Y000490D01*
X006291Y000435D01*
X006126Y000435D01*
X006475Y000490D02*
X006475Y000600D01*
X006531Y000655D01*
X006641Y000655D01*
X006696Y000600D01*
X006696Y000490D01*
X006641Y000435D01*
X006531Y000435D01*
X006475Y000490D01*
X006825Y000435D02*
X006825Y000600D01*
X006880Y000655D01*
X006990Y000655D01*
X007046Y000600D01*
X007169Y000655D02*
X007279Y000655D01*
X007224Y000710D02*
X007224Y000490D01*
X007169Y000435D01*
X007046Y000435D02*
X007046Y000765D01*
X007409Y000600D02*
X007629Y000600D01*
X007752Y000655D02*
X007862Y000655D01*
X007807Y000710D02*
X007807Y000490D01*
X007752Y000435D01*
X007992Y000490D02*
X007992Y000600D01*
X008047Y000655D01*
X008157Y000655D01*
X008212Y000600D01*
X008212Y000490D01*
X008157Y000435D01*
X008047Y000435D01*
X007992Y000490D01*
X008342Y000490D02*
X008342Y000600D01*
X008397Y000655D01*
X008562Y000655D01*
X008562Y000765D02*
X008562Y000435D01*
X008397Y000435D01*
X008342Y000490D01*
X006770Y002025D02*
X006770Y002375D01*
X006594Y002375D01*
X006536Y002317D01*
X006536Y002200D01*
X006594Y002142D01*
X006770Y002142D01*
X006653Y002142D02*
X006536Y002025D01*
X006401Y002083D02*
X006168Y002317D01*
X006168Y002083D01*
X006226Y002025D01*
X006343Y002025D01*
X006401Y002083D01*
X006401Y002317D01*
X006343Y002375D01*
X006226Y002375D01*
X006168Y002317D01*
X006033Y002083D02*
X005975Y002083D01*
X005975Y002025D01*
X006033Y002025D01*
X006033Y002083D01*
X005849Y002200D02*
X005615Y002200D01*
X005674Y002025D02*
X005674Y002375D01*
X005849Y002200D01*
X005695Y003558D02*
X005695Y003909D01*
X005520Y003909D01*
X005462Y003850D01*
X005462Y003733D01*
X005520Y003675D01*
X005695Y003675D01*
X005830Y003675D02*
X005830Y003850D01*
X005888Y003909D01*
X005947Y003850D01*
X005947Y003675D01*
X006064Y003675D02*
X006064Y003909D01*
X006005Y003909D01*
X005947Y003850D01*
X006198Y003850D02*
X006432Y003850D01*
X006432Y003909D02*
X006315Y004025D01*
X006198Y003909D01*
X006198Y003675D01*
X006432Y003675D02*
X006432Y003909D01*
X006567Y003850D02*
X006567Y003792D01*
X006800Y003792D01*
X006800Y003850D02*
X006800Y003733D01*
X006742Y003675D01*
X006625Y003675D01*
X006567Y003850D02*
X006625Y003909D01*
X006742Y003909D01*
X006800Y003850D01*
X006935Y003850D02*
X006935Y003792D01*
X007169Y003792D01*
X007169Y003850D02*
X007169Y003733D01*
X007110Y003675D01*
X006993Y003675D01*
X006935Y003850D02*
X006993Y003909D01*
X007110Y003909D01*
X007169Y003850D01*
X007303Y003967D02*
X007537Y003733D01*
X007537Y003675D01*
X007303Y003675D01*
X007303Y003967D02*
X007303Y004025D01*
X007537Y004025D01*
X007672Y003850D02*
X007730Y003909D01*
X007847Y003909D01*
X007905Y003850D01*
X007905Y003733D01*
X007847Y003675D01*
X007730Y003675D01*
X007672Y003792D02*
X007905Y003792D01*
X008040Y003792D02*
X008040Y003850D01*
X008098Y003909D01*
X008215Y003909D01*
X008274Y003850D01*
X008274Y003733D01*
X008215Y003675D01*
X008098Y003675D01*
X008040Y003792D02*
X008274Y003792D01*
X007672Y003792D02*
X007672Y003850D01*
X004959Y003733D02*
X004900Y003675D01*
X004842Y003675D01*
X004784Y003733D01*
X004784Y004025D01*
X004842Y004025D02*
X004725Y004025D01*
X004590Y003909D02*
X004532Y003909D01*
X004532Y003675D01*
X004590Y003675D02*
X004474Y003675D01*
X004345Y003733D02*
X004286Y003675D01*
X004111Y003675D01*
X004111Y003617D02*
X004111Y003909D01*
X004286Y003909D01*
X004345Y003850D01*
X004345Y003733D01*
X004228Y003558D02*
X004170Y003558D01*
X004111Y003617D01*
X004532Y004025D02*
X004532Y004084D01*
X001425Y004141D02*
X001425Y004375D01*
X001425Y004258D02*
X001075Y004258D01*
X001191Y004375D01*
X001133Y004007D02*
X001075Y003948D01*
X001075Y003832D01*
X001133Y003773D01*
X001367Y004007D01*
X001425Y003948D01*
X001425Y003832D01*
X001367Y003773D01*
X001133Y003773D01*
X001133Y003638D02*
X001075Y003580D01*
X001075Y003463D01*
X001133Y003405D01*
X001367Y003638D01*
X001425Y003580D01*
X001425Y003463D01*
X001367Y003405D01*
X001133Y003405D01*
X001075Y003270D02*
X001425Y003270D01*
X001308Y003270D02*
X001075Y003037D01*
X001250Y003212D02*
X001425Y003037D01*
X001367Y003638D02*
X001133Y003638D01*
X001133Y004007D02*
X001367Y004007D01*
X010525Y003992D02*
X010875Y003992D01*
X010759Y003875D01*
X010525Y003875D02*
X010525Y004109D01*
X010583Y004243D02*
X010817Y004477D01*
X010583Y004477D01*
X010525Y004418D01*
X010525Y004302D01*
X010583Y004243D01*
X010817Y004243D01*
X010875Y004302D01*
X010875Y004418D01*
X010817Y004477D01*
X010700Y004612D02*
X010700Y004787D01*
X010642Y004845D01*
X010583Y004845D01*
X010525Y004787D01*
X010525Y004670D01*
X010583Y004612D01*
X010700Y004612D01*
X010817Y004728D01*
X010875Y004845D01*
D11*
X010700Y003301D02*
X010513Y003115D01*
X010560Y003161D02*
X010420Y003301D01*
X010420Y003115D02*
X010700Y003115D01*
X010420Y003007D02*
X010420Y002820D01*
X010420Y002913D02*
X010700Y002913D01*
X010607Y002820D01*
X008300Y004813D02*
X008207Y004720D01*
X008020Y004720D02*
X008020Y004907D01*
X008020Y004813D02*
X008300Y004813D01*
X008254Y005015D02*
X008067Y005015D01*
X008254Y005201D01*
X008067Y005201D01*
X008020Y005155D01*
X008020Y005061D01*
X008067Y005015D01*
X008254Y005015D02*
X008300Y005061D01*
X008300Y005155D01*
X008254Y005201D01*
X008254Y005309D02*
X008300Y005356D01*
X008300Y005449D01*
X008254Y005496D01*
X008067Y005309D01*
X008020Y005356D01*
X008020Y005449D01*
X008067Y005496D01*
X008254Y005496D01*
X008207Y005604D02*
X008207Y005651D01*
X008160Y005697D01*
X008207Y005744D01*
X008160Y005791D01*
X008020Y005791D01*
X008020Y005899D02*
X008207Y005899D01*
X008300Y005992D01*
X008207Y006085D01*
X008020Y006085D01*
X008160Y006085D02*
X008160Y005899D01*
X008160Y005697D02*
X008020Y005697D01*
X008020Y005604D02*
X008207Y005604D01*
X008254Y005309D02*
X008067Y005309D01*
X007262Y004540D02*
X007168Y004540D01*
X007122Y004494D01*
X007014Y004494D02*
X007014Y004307D01*
X006967Y004260D01*
X006874Y004260D01*
X006827Y004307D01*
X006719Y004400D02*
X006532Y004400D01*
X006425Y004400D02*
X006285Y004400D01*
X006238Y004353D01*
X006238Y004307D01*
X006285Y004260D01*
X006425Y004260D01*
X006425Y004540D01*
X006285Y004540D01*
X006238Y004494D01*
X006238Y004447D01*
X006285Y004400D01*
X006130Y004494D02*
X006130Y004540D01*
X006130Y004494D02*
X006037Y004400D01*
X006037Y004260D01*
X006037Y004400D02*
X005943Y004494D01*
X005943Y004540D01*
X005835Y004400D02*
X005649Y004400D01*
X005541Y004447D02*
X005494Y004400D01*
X005401Y004400D01*
X005354Y004353D01*
X005354Y004307D01*
X005401Y004260D01*
X005494Y004260D01*
X005541Y004307D01*
X005541Y004447D02*
X005541Y004494D01*
X005494Y004540D01*
X005401Y004540D01*
X005354Y004494D01*
X005246Y004447D02*
X005153Y004540D01*
X005059Y004447D01*
X005059Y004260D01*
X005246Y004260D02*
X005246Y004447D01*
X005246Y004400D02*
X005059Y004400D01*
X006827Y004494D02*
X006874Y004540D01*
X006967Y004540D01*
X007014Y004494D01*
X007122Y004307D02*
X007168Y004260D01*
X007262Y004260D01*
X007309Y004307D01*
X007309Y004494D01*
X007262Y004540D01*
D12*
X006615Y004736D02*
X006514Y004635D01*
X006365Y004756D01*
X006305Y004725D01*
X006221Y004929D01*
X006258Y004951D01*
X006290Y004980D01*
X006314Y005016D01*
X006329Y005057D01*
X006335Y005100D01*
X006329Y005144D01*
X006314Y005185D01*
X006289Y005222D01*
X006256Y005251D01*
X006217Y005272D01*
X006174Y005283D01*
X006130Y005283D01*
X006087Y005273D01*
X006048Y005253D01*
X006014Y005225D01*
X005988Y005189D01*
X005972Y005148D01*
X005966Y005104D01*
X005970Y005060D01*
X005985Y005018D01*
X006009Y004981D01*
X006041Y004951D01*
X006079Y004929D01*
X005995Y004725D01*
X005935Y004756D01*
X005786Y004635D01*
X005685Y004736D01*
X005806Y004885D01*
X005775Y004945D01*
X005754Y005009D01*
X005564Y005028D01*
X005564Y005172D01*
X005754Y005191D01*
X005775Y005255D01*
X005806Y005315D01*
X005685Y005464D01*
X005786Y005565D01*
X005935Y005444D01*
X005995Y005475D01*
X006059Y005496D01*
X006078Y005686D01*
X006222Y005686D01*
X006241Y005496D01*
X006305Y005475D01*
X006365Y005444D01*
X006514Y005565D01*
X006615Y005464D01*
X006494Y005315D01*
X006525Y005255D01*
X006546Y005191D01*
X006736Y005172D01*
X006736Y005028D01*
X006546Y005009D01*
X006525Y004945D01*
X006494Y004885D01*
X006615Y004736D01*
X006601Y004754D02*
X006367Y004754D01*
X006363Y004754D02*
X006293Y004754D01*
X006269Y004812D02*
X006554Y004812D01*
X006507Y004870D02*
X006245Y004870D01*
X006222Y004927D02*
X006516Y004927D01*
X006538Y004985D02*
X006293Y004985D01*
X006324Y005042D02*
X006736Y005042D01*
X006736Y005100D02*
X006335Y005100D01*
X006324Y005157D02*
X006736Y005157D01*
X006538Y005215D02*
X006293Y005215D01*
X006215Y005272D02*
X006516Y005272D01*
X006506Y005330D02*
X005794Y005330D01*
X005784Y005272D02*
X006085Y005272D01*
X006007Y005215D02*
X005762Y005215D01*
X005564Y005157D02*
X005976Y005157D01*
X005966Y005100D02*
X005564Y005100D01*
X005564Y005042D02*
X005976Y005042D01*
X006007Y004985D02*
X005762Y004985D01*
X005784Y004927D02*
X006078Y004927D01*
X006055Y004870D02*
X005793Y004870D01*
X005746Y004812D02*
X006031Y004812D01*
X006007Y004754D02*
X005937Y004754D01*
X005933Y004754D02*
X005699Y004754D01*
X005724Y004697D02*
X005863Y004697D01*
X005792Y004639D02*
X005782Y004639D01*
X006437Y004697D02*
X006576Y004697D01*
X006518Y004639D02*
X006508Y004639D01*
X006553Y005388D02*
X005747Y005388D01*
X005700Y005445D02*
X005934Y005445D01*
X005936Y005445D02*
X006364Y005445D01*
X006366Y005445D02*
X006600Y005445D01*
X006576Y005503D02*
X006437Y005503D01*
X006507Y005560D02*
X006519Y005560D01*
X006241Y005503D02*
X006059Y005503D01*
X006065Y005560D02*
X006235Y005560D01*
X006229Y005618D02*
X006071Y005618D01*
X006077Y005675D02*
X006223Y005675D01*
X005863Y005503D02*
X005724Y005503D01*
X005781Y005560D02*
X005793Y005560D01*
M02*
