%
M48
M72
T01C0.0130
T02C0.0400
T03C0.0472
T04C0.1260
%
T01
X6833Y6325
T02
X9221Y6521
X9221Y5521
X9221Y4521
X9221Y3521
X9221Y2521
X9221Y1521
X3221Y1521
X3221Y2521
X3221Y3521
X3221Y4521
X3221Y5521
X3221Y6521
X3221Y7521
X1771Y5421
X771Y4421
X1771Y3421
X9221Y7521
T03
X11021Y5799
X11021Y3043
T04
X1321Y1321
X1321Y7521
X11321Y7521
X11321Y1321
M30
