G75*
%MOIN*%
%OFA0B0*%
%FSLAX24Y24*%
%IPPOS*%
%LPD*%
%AMOC8*
5,1,8,0,0,1.08239X$1,22.5*
%
%ADD10C,0.0000*%
D10*
X001221Y000221D02*
X011421Y000221D01*
X011481Y000223D01*
X011542Y000228D01*
X011601Y000237D01*
X011660Y000250D01*
X011719Y000266D01*
X011776Y000286D01*
X011831Y000309D01*
X011886Y000336D01*
X011938Y000365D01*
X011989Y000398D01*
X012038Y000434D01*
X012084Y000472D01*
X012128Y000514D01*
X012170Y000558D01*
X012208Y000604D01*
X012244Y000653D01*
X012277Y000704D01*
X012306Y000756D01*
X012333Y000811D01*
X012356Y000866D01*
X012376Y000923D01*
X012392Y000982D01*
X012405Y001041D01*
X012414Y001100D01*
X012419Y001161D01*
X012421Y001221D01*
X012421Y007321D01*
X012419Y007381D01*
X012414Y007442D01*
X012405Y007501D01*
X012392Y007560D01*
X012376Y007619D01*
X012356Y007676D01*
X012333Y007731D01*
X012306Y007786D01*
X012277Y007838D01*
X012244Y007889D01*
X012208Y007938D01*
X012170Y007984D01*
X012128Y008028D01*
X012084Y008070D01*
X012038Y008108D01*
X011989Y008144D01*
X011938Y008177D01*
X011886Y008206D01*
X011831Y008233D01*
X011776Y008256D01*
X011719Y008276D01*
X011660Y008292D01*
X011601Y008305D01*
X011542Y008314D01*
X011481Y008319D01*
X011421Y008321D01*
X001221Y008321D01*
X001161Y008319D01*
X001100Y008314D01*
X001041Y008305D01*
X000982Y008292D01*
X000923Y008276D01*
X000866Y008256D01*
X000811Y008233D01*
X000756Y008206D01*
X000704Y008177D01*
X000653Y008144D01*
X000604Y008108D01*
X000558Y008070D01*
X000514Y008028D01*
X000472Y007984D01*
X000434Y007938D01*
X000398Y007889D01*
X000365Y007838D01*
X000336Y007786D01*
X000309Y007731D01*
X000286Y007676D01*
X000266Y007619D01*
X000250Y007560D01*
X000237Y007501D01*
X000228Y007442D01*
X000223Y007381D01*
X000221Y007321D01*
X000221Y001221D01*
X000223Y001161D01*
X000228Y001100D01*
X000237Y001041D01*
X000250Y000982D01*
X000266Y000923D01*
X000286Y000866D01*
X000309Y000811D01*
X000336Y000756D01*
X000365Y000704D01*
X000398Y000653D01*
X000434Y000604D01*
X000472Y000558D01*
X000514Y000514D01*
X000558Y000472D01*
X000604Y000434D01*
X000653Y000398D01*
X000704Y000365D01*
X000756Y000336D01*
X000811Y000309D01*
X000866Y000286D01*
X000923Y000266D01*
X000982Y000250D01*
X001041Y000237D01*
X001100Y000228D01*
X001161Y000223D01*
X001221Y000221D01*
M02*
