G75*
%MOIN*%
%OFA0B0*%
%FSLAX24Y24*%
%IPPOS*%
%LPD*%
%AMOC8*
5,1,8,0,0,1.08239X$1,22.5*
%
%ADD10C,0.0080*%
D10*
X003723Y001250D02*
X003723Y001400D01*
X003773Y001450D01*
X003823Y001400D01*
X003823Y001250D01*
X003923Y001250D02*
X003923Y001450D01*
X003873Y001450D01*
X003823Y001400D01*
X004073Y001400D02*
X004073Y001300D01*
X004123Y001250D01*
X004223Y001250D01*
X004273Y001300D01*
X004273Y001400D01*
X004223Y001450D01*
X004123Y001450D01*
X004073Y001400D01*
X004423Y001450D02*
X004573Y001450D01*
X004623Y001400D01*
X004623Y001300D01*
X004573Y001250D01*
X004423Y001250D01*
X004748Y001250D02*
X004798Y001250D01*
X004798Y001300D01*
X004748Y001300D01*
X004748Y001250D01*
X004948Y001300D02*
X004998Y001350D01*
X005098Y001350D01*
X005148Y001400D01*
X005098Y001450D01*
X004948Y001450D01*
X004948Y001300D02*
X004998Y001250D01*
X005148Y001250D01*
X005281Y001250D02*
X005331Y001300D01*
X005331Y001500D01*
X005381Y001450D02*
X005281Y001450D01*
X005531Y001400D02*
X005531Y001250D01*
X005531Y001400D02*
X005581Y001450D01*
X005681Y001450D01*
X005731Y001400D01*
X005881Y001450D02*
X006031Y001450D01*
X006081Y001400D01*
X006081Y001300D01*
X006031Y001250D01*
X005881Y001250D01*
X005881Y001200D02*
X005881Y001450D01*
X005731Y001550D02*
X005731Y001250D01*
X005881Y001200D02*
X005931Y001150D01*
X005981Y001150D01*
X006231Y001250D02*
X006231Y001450D01*
X006431Y001450D02*
X006431Y001300D01*
X006381Y001250D01*
X006231Y001250D01*
X006580Y001300D02*
X006631Y001250D01*
X006731Y001250D01*
X006781Y001300D01*
X006781Y001400D01*
X006731Y001450D01*
X006631Y001450D01*
X006580Y001400D01*
X006580Y001300D01*
X006930Y001250D02*
X006930Y001400D01*
X006980Y001450D01*
X007081Y001450D01*
X007131Y001400D01*
X007264Y001450D02*
X007364Y001450D01*
X007314Y001500D02*
X007314Y001300D01*
X007264Y001250D01*
X007131Y001250D02*
X007131Y001550D01*
X007514Y001400D02*
X007714Y001400D01*
X007847Y001450D02*
X007947Y001450D01*
X007897Y001500D02*
X007897Y001300D01*
X007847Y001250D01*
X008097Y001300D02*
X008097Y001400D01*
X008147Y001450D01*
X008247Y001450D01*
X008297Y001400D01*
X008297Y001300D01*
X008247Y001250D01*
X008147Y001250D01*
X008097Y001300D01*
X008447Y001300D02*
X008447Y001400D01*
X008497Y001450D01*
X008647Y001450D01*
X008647Y001550D02*
X008647Y001250D01*
X008497Y001250D01*
X008447Y001300D01*
X006755Y001940D02*
X006755Y002260D01*
X006594Y002260D01*
X006541Y002207D01*
X006541Y002100D01*
X006594Y002047D01*
X006755Y002047D01*
X006648Y002047D02*
X006541Y001940D01*
X006386Y001993D02*
X006333Y001940D01*
X006226Y001940D01*
X006173Y001993D01*
X006173Y002207D01*
X006386Y001993D01*
X006386Y002207D01*
X006333Y002260D01*
X006226Y002260D01*
X006173Y002207D01*
X006018Y001993D02*
X005965Y001993D01*
X005965Y001940D01*
X006018Y001940D01*
X006018Y001993D01*
X005834Y001993D02*
X005780Y001940D01*
X005674Y001940D01*
X005620Y001993D01*
X005620Y002047D01*
X005674Y002100D01*
X005727Y002100D01*
X005674Y002100D02*
X005620Y002154D01*
X005620Y002207D01*
X005674Y002260D01*
X005780Y002260D01*
X005834Y002207D01*
X005680Y002483D02*
X005680Y002804D01*
X005520Y002804D01*
X005467Y002750D01*
X005467Y002643D01*
X005520Y002590D01*
X005680Y002590D01*
X005835Y002590D02*
X005835Y002750D01*
X005888Y002804D01*
X005942Y002750D01*
X005942Y002590D01*
X006049Y002590D02*
X006049Y002804D01*
X005995Y002804D01*
X005942Y002750D01*
X006203Y002750D02*
X006417Y002750D01*
X006417Y002804D02*
X006310Y002910D01*
X006203Y002804D01*
X006203Y002590D01*
X006417Y002590D02*
X006417Y002804D01*
X006572Y002750D02*
X006572Y002697D01*
X006785Y002697D01*
X006785Y002750D02*
X006785Y002643D01*
X006732Y002590D01*
X006625Y002590D01*
X006572Y002750D02*
X006625Y002804D01*
X006732Y002804D01*
X006785Y002750D01*
X006940Y002750D02*
X006940Y002697D01*
X007154Y002697D01*
X007154Y002750D02*
X007154Y002643D01*
X007100Y002590D01*
X006993Y002590D01*
X006940Y002750D02*
X006993Y002804D01*
X007100Y002804D01*
X007154Y002750D01*
X007308Y002857D02*
X007522Y002643D01*
X007522Y002590D01*
X007308Y002590D01*
X007677Y002697D02*
X007890Y002697D01*
X007890Y002750D02*
X007890Y002643D01*
X007837Y002590D01*
X007730Y002590D01*
X007677Y002697D02*
X007677Y002750D01*
X007730Y002804D01*
X007837Y002804D01*
X007890Y002750D01*
X008045Y002750D02*
X008045Y002697D01*
X008259Y002697D01*
X008259Y002750D02*
X008259Y002643D01*
X008205Y002590D01*
X008098Y002590D01*
X008045Y002750D02*
X008098Y002804D01*
X008205Y002804D01*
X008259Y002750D01*
X007522Y002910D02*
X007308Y002910D01*
X007308Y002857D01*
X007249Y003380D02*
X007169Y003380D01*
X007128Y003420D01*
X007249Y003380D02*
X007289Y003420D01*
X007289Y003580D01*
X007249Y003620D01*
X007169Y003620D01*
X007128Y003580D01*
X006994Y003580D02*
X006954Y003620D01*
X006874Y003620D01*
X006834Y003580D01*
X006699Y003500D02*
X006539Y003500D01*
X006405Y003500D02*
X006285Y003500D01*
X006245Y003460D01*
X006245Y003420D01*
X006285Y003380D01*
X006405Y003380D01*
X006405Y003620D01*
X006285Y003620D01*
X006245Y003580D01*
X006245Y003540D01*
X006285Y003500D01*
X006110Y003580D02*
X006110Y003620D01*
X006110Y003580D02*
X006030Y003500D01*
X006030Y003380D01*
X006030Y003500D02*
X005950Y003580D01*
X005950Y003620D01*
X005786Y003735D02*
X005685Y003836D01*
X005806Y003985D01*
X005775Y004045D01*
X005754Y004109D01*
X005564Y004128D01*
X005564Y004272D01*
X005754Y004291D01*
X005775Y004355D01*
X005806Y004415D01*
X005685Y004564D01*
X005786Y004665D01*
X005935Y004544D01*
X005995Y004575D01*
X006059Y004596D01*
X006078Y004786D01*
X006222Y004786D01*
X006241Y004596D01*
X006305Y004575D01*
X006365Y004544D01*
X006514Y004665D01*
X006615Y004564D01*
X006494Y004415D01*
X006525Y004355D01*
X006546Y004291D01*
X006736Y004272D01*
X006736Y004128D01*
X006546Y004109D01*
X006525Y004045D01*
X006494Y003985D01*
X006615Y003836D01*
X006514Y003735D01*
X006365Y003856D01*
X006305Y003825D01*
X006221Y004029D01*
X006258Y004051D01*
X006290Y004080D01*
X006314Y004116D01*
X006329Y004157D01*
X006335Y004200D01*
X006329Y004244D01*
X006314Y004285D01*
X006289Y004322D01*
X006256Y004351D01*
X006217Y004372D01*
X006174Y004383D01*
X006130Y004383D01*
X006087Y004373D01*
X006048Y004353D01*
X006014Y004325D01*
X005988Y004289D01*
X005972Y004248D01*
X005966Y004204D01*
X005970Y004160D01*
X005985Y004118D01*
X006009Y004081D01*
X006041Y004051D01*
X006079Y004029D01*
X005995Y003825D01*
X005935Y003856D01*
X005786Y003735D01*
X005760Y003761D02*
X005819Y003761D01*
X005915Y003840D02*
X005687Y003840D01*
X005751Y003918D02*
X006033Y003918D01*
X006001Y003840D02*
X005966Y003840D01*
X006066Y003997D02*
X005800Y003997D01*
X005765Y004075D02*
X006015Y004075D01*
X005972Y004154D02*
X005564Y004154D01*
X005564Y004232D02*
X005970Y004232D01*
X006004Y004311D02*
X005761Y004311D01*
X005792Y004389D02*
X006508Y004389D01*
X006537Y004468D02*
X005763Y004468D01*
X005699Y004546D02*
X005933Y004546D01*
X005938Y004546D02*
X006362Y004546D01*
X006367Y004546D02*
X006601Y004546D01*
X006554Y004625D02*
X006463Y004625D01*
X006238Y004625D02*
X006062Y004625D01*
X006070Y004703D02*
X006230Y004703D01*
X006222Y004782D02*
X006078Y004782D01*
X005836Y004625D02*
X005746Y004625D01*
X006296Y004311D02*
X006539Y004311D01*
X006736Y004232D02*
X006331Y004232D01*
X006328Y004154D02*
X006736Y004154D01*
X006535Y004075D02*
X006285Y004075D01*
X006234Y003997D02*
X006500Y003997D01*
X006549Y003918D02*
X006267Y003918D01*
X006299Y003840D02*
X006334Y003840D01*
X006385Y003840D02*
X006613Y003840D01*
X006540Y003761D02*
X006481Y003761D01*
X006994Y003580D02*
X006994Y003420D01*
X006954Y003380D01*
X006874Y003380D01*
X006834Y003420D01*
X005815Y003500D02*
X005655Y003500D01*
X005521Y003540D02*
X005481Y003500D01*
X005401Y003500D01*
X005361Y003460D01*
X005361Y003420D01*
X005401Y003380D01*
X005481Y003380D01*
X005521Y003420D01*
X005521Y003540D02*
X005521Y003580D01*
X005481Y003620D01*
X005401Y003620D01*
X005361Y003580D01*
X005226Y003540D02*
X005146Y003620D01*
X005066Y003540D01*
X005066Y003380D01*
X005066Y003500D02*
X005226Y003500D01*
X005226Y003540D02*
X005226Y003380D01*
X004522Y002964D02*
X004522Y002910D01*
X004522Y002804D02*
X004522Y002590D01*
X004575Y002590D02*
X004469Y002590D01*
X004330Y002643D02*
X004276Y002590D01*
X004116Y002590D01*
X004116Y002537D02*
X004116Y002804D01*
X004276Y002804D01*
X004330Y002750D01*
X004330Y002643D01*
X004223Y002483D02*
X004170Y002483D01*
X004116Y002537D01*
X004522Y002804D02*
X004575Y002804D01*
X004730Y002910D02*
X004837Y002910D01*
X004784Y002910D02*
X004784Y002643D01*
X004837Y002590D01*
X004890Y002590D01*
X004944Y002643D01*
X007040Y004840D02*
X007040Y005000D01*
X007040Y004920D02*
X007280Y004920D01*
X007200Y004840D01*
X007240Y005135D02*
X007080Y005135D01*
X007240Y005295D01*
X007080Y005295D01*
X007040Y005255D01*
X007040Y005175D01*
X007080Y005135D01*
X007240Y005135D02*
X007280Y005175D01*
X007280Y005255D01*
X007240Y005295D01*
X007240Y005429D02*
X007080Y005429D01*
X007240Y005589D01*
X007080Y005589D01*
X007040Y005549D01*
X007040Y005469D01*
X007080Y005429D01*
X007240Y005429D02*
X007280Y005469D01*
X007280Y005549D01*
X007240Y005589D01*
X007200Y005724D02*
X007040Y005724D01*
X007040Y005804D02*
X007160Y005804D01*
X007200Y005844D01*
X007160Y005884D01*
X007040Y005884D01*
X007160Y005804D02*
X007200Y005764D01*
X007200Y005724D01*
X007200Y006019D02*
X007040Y006019D01*
X007160Y006019D02*
X007160Y006179D01*
X007200Y006179D02*
X007040Y006179D01*
X007200Y006179D02*
X007280Y006099D01*
X007200Y006019D01*
X010540Y004787D02*
X010540Y004680D01*
X010593Y004627D01*
X010700Y004627D01*
X010700Y004787D01*
X010647Y004840D01*
X010593Y004840D01*
X010540Y004787D01*
X010700Y004627D02*
X010807Y004733D01*
X010860Y004840D01*
X010807Y004472D02*
X010593Y004472D01*
X010540Y004418D01*
X010540Y004312D01*
X010593Y004258D01*
X010807Y004472D01*
X010860Y004418D01*
X010860Y004312D01*
X010807Y004258D01*
X010593Y004258D01*
X010540Y004104D02*
X010540Y003890D01*
X010540Y003997D02*
X010860Y003997D01*
X010754Y003890D01*
X010680Y003295D02*
X010520Y003135D01*
X010560Y003175D02*
X010440Y003295D01*
X010440Y003135D02*
X010680Y003135D01*
X010440Y003000D02*
X010440Y002840D01*
X010440Y002920D02*
X010680Y002920D01*
X010600Y002840D01*
X001410Y003042D02*
X001250Y003202D01*
X001303Y003255D02*
X001090Y003042D01*
X001090Y003255D02*
X001410Y003255D01*
X001357Y003410D02*
X001143Y003410D01*
X001357Y003623D01*
X001410Y003570D01*
X001410Y003463D01*
X001357Y003410D01*
X001143Y003410D02*
X001090Y003463D01*
X001090Y003570D01*
X001143Y003623D01*
X001357Y003623D01*
X001357Y003778D02*
X001143Y003778D01*
X001357Y003992D01*
X001410Y003938D01*
X001410Y003832D01*
X001357Y003778D01*
X001143Y003778D02*
X001090Y003832D01*
X001090Y003938D01*
X001143Y003992D01*
X001357Y003992D01*
X001410Y004146D02*
X001410Y004360D01*
X001410Y004253D02*
X001090Y004253D01*
X001196Y004360D01*
M02*
