G75*
%MOIN*%
%OFA0B0*%
%FSLAX24Y24*%
%IPPOS*%
%LPD*%
%AMOC8*
5,1,8,0,0,1.08239X$1,22.5*
%
%ADD10C,0.0080*%
%ADD11C,0.0160*%
D10*
X003611Y000631D02*
X003611Y000771D01*
X003681Y000841D01*
X003821Y000841D01*
X003891Y000771D01*
X003891Y000701D01*
X003611Y000701D01*
X003611Y000631D02*
X003681Y000561D01*
X003821Y000561D01*
X004071Y000631D02*
X004071Y000771D01*
X004142Y000841D01*
X004282Y000841D01*
X004352Y000771D01*
X004352Y000701D01*
X004071Y000701D01*
X004071Y000631D02*
X004142Y000561D01*
X004282Y000561D01*
X004532Y000561D02*
X004812Y000561D01*
X004992Y000631D02*
X004992Y000771D01*
X005062Y000841D01*
X005202Y000841D01*
X005273Y000771D01*
X005273Y000701D01*
X004992Y000701D01*
X004992Y000631D02*
X005062Y000561D01*
X005202Y000561D01*
X005453Y000631D02*
X005453Y000771D01*
X005523Y000841D01*
X005663Y000841D01*
X005733Y000771D01*
X005733Y000701D01*
X005453Y000701D01*
X005453Y000631D02*
X005523Y000561D01*
X005663Y000561D01*
X005913Y000561D02*
X005913Y000841D01*
X006053Y000981D01*
X006193Y000841D01*
X006193Y000561D01*
X006373Y000561D02*
X006373Y000841D01*
X006444Y000841D01*
X006514Y000771D01*
X006584Y000841D01*
X006654Y000771D01*
X006654Y000561D01*
X006514Y000561D02*
X006514Y000771D01*
X006193Y000771D02*
X005913Y000771D01*
X005858Y001156D02*
X006006Y001277D01*
X006066Y001246D01*
X006150Y001451D01*
X006113Y001472D01*
X006081Y001501D01*
X006057Y001537D01*
X006042Y001578D01*
X006037Y001621D01*
X006042Y001665D01*
X006057Y001706D01*
X006082Y001743D01*
X006115Y001772D01*
X006154Y001793D01*
X006197Y001804D01*
X006241Y001805D01*
X006284Y001794D01*
X006324Y001775D01*
X006357Y001746D01*
X006383Y001710D01*
X006399Y001669D01*
X006406Y001625D01*
X006401Y001581D01*
X006387Y001539D01*
X006362Y001502D01*
X006330Y001472D01*
X006292Y001451D01*
X006376Y001246D01*
X006436Y001277D01*
X006585Y001156D01*
X006686Y001258D01*
X006565Y001406D01*
X006596Y001466D01*
X006617Y001530D01*
X006807Y001549D01*
X006807Y001693D01*
X006617Y001712D01*
X006596Y001776D01*
X006565Y001836D01*
X006686Y001985D01*
X006585Y002086D01*
X006436Y001965D01*
X006376Y001996D01*
X006312Y002017D01*
X006293Y002207D01*
X006149Y002207D01*
X006130Y002017D01*
X006066Y001996D01*
X006006Y001965D01*
X005858Y002086D01*
X005756Y001985D01*
X005877Y001836D01*
X005846Y001776D01*
X005825Y001712D01*
X005635Y001693D01*
X005635Y001549D01*
X005825Y001530D01*
X005846Y001466D01*
X005877Y001406D01*
X005756Y001258D01*
X005858Y001156D01*
X005850Y001163D02*
X005867Y001163D01*
X005772Y001242D02*
X005963Y001242D01*
X006096Y001320D02*
X005807Y001320D01*
X005871Y001399D02*
X006129Y001399D01*
X006107Y001477D02*
X005842Y001477D01*
X005635Y001556D02*
X006050Y001556D01*
X006038Y001634D02*
X005635Y001634D01*
X005826Y001713D02*
X006062Y001713D01*
X006151Y001791D02*
X005854Y001791D01*
X005850Y001870D02*
X006593Y001870D01*
X006589Y001791D02*
X006291Y001791D01*
X006381Y001713D02*
X006617Y001713D01*
X006807Y001634D02*
X006404Y001634D01*
X006392Y001556D02*
X006807Y001556D01*
X006600Y001477D02*
X006335Y001477D01*
X006313Y001399D02*
X006571Y001399D01*
X006635Y001320D02*
X006346Y001320D01*
X006479Y001242D02*
X006671Y001242D01*
X006592Y001163D02*
X006576Y001163D01*
X006834Y000841D02*
X007044Y000841D01*
X007114Y000771D01*
X007114Y000631D01*
X007044Y000561D01*
X006834Y000561D01*
X006834Y000421D02*
X006834Y000841D01*
X007755Y000631D02*
X007825Y000561D01*
X007895Y000561D01*
X007965Y000631D01*
X007965Y000981D01*
X007895Y000981D02*
X008035Y000981D01*
X008215Y000841D02*
X008285Y000841D01*
X008285Y000561D01*
X008215Y000561D02*
X008355Y000561D01*
X008522Y000631D02*
X008592Y000561D01*
X008802Y000561D01*
X008802Y000491D02*
X008802Y000841D01*
X008592Y000841D01*
X008522Y000771D01*
X008522Y000631D01*
X008732Y000421D02*
X008802Y000491D01*
X008732Y000421D02*
X008662Y000421D01*
X008285Y000981D02*
X008285Y001052D01*
X008338Y001411D02*
X008338Y001731D01*
X008124Y001731D02*
X008338Y001411D01*
X008124Y001411D02*
X008124Y001731D01*
X007986Y001731D02*
X007879Y001731D01*
X007932Y001731D02*
X007932Y001411D01*
X007879Y001411D02*
X007986Y001411D01*
X008493Y001571D02*
X008706Y001571D01*
X008600Y001678D02*
X008600Y001464D01*
X008596Y002411D02*
X008543Y002464D01*
X008543Y002518D01*
X008596Y002571D01*
X008703Y002571D01*
X008756Y002518D01*
X008756Y002464D01*
X008703Y002411D01*
X008596Y002411D01*
X008596Y002571D02*
X008543Y002625D01*
X008543Y002678D01*
X008596Y002731D01*
X008703Y002731D01*
X008756Y002678D01*
X008756Y002625D01*
X008703Y002571D01*
X008756Y003411D02*
X008543Y003411D01*
X008650Y003411D02*
X008650Y003731D01*
X008543Y003625D01*
X008281Y004411D02*
X008388Y004518D01*
X008388Y004731D01*
X008174Y004731D02*
X008174Y004518D01*
X008281Y004411D01*
X008543Y004571D02*
X008756Y004571D01*
X008650Y004678D02*
X008650Y004464D01*
X008000Y004911D02*
X008000Y005071D01*
X007920Y005151D01*
X007840Y005071D01*
X007840Y004911D01*
X007840Y005031D02*
X008000Y005031D01*
X007705Y005031D02*
X007705Y004911D01*
X007625Y004911D02*
X007625Y005031D01*
X007665Y005071D01*
X007705Y005031D01*
X007625Y005031D02*
X007585Y005071D01*
X007545Y005071D01*
X007545Y004911D01*
X007411Y004951D02*
X007371Y004911D01*
X007290Y004911D01*
X007250Y004951D01*
X007411Y005111D01*
X007411Y004951D01*
X007250Y004951D02*
X007250Y005111D01*
X007290Y005151D01*
X007371Y005151D01*
X007411Y005111D01*
X007116Y005111D02*
X007116Y004951D01*
X007076Y004911D01*
X006996Y004911D01*
X006956Y004951D01*
X007116Y005111D01*
X007076Y005151D01*
X006996Y005151D01*
X006956Y005111D01*
X006956Y004951D01*
X006821Y004911D02*
X006661Y004911D01*
X006741Y004911D02*
X006741Y005151D01*
X006661Y005071D01*
X006709Y005711D02*
X006603Y005711D01*
X006549Y005764D01*
X006549Y005978D01*
X006603Y006031D01*
X006709Y006031D01*
X006763Y005978D01*
X006763Y005764D01*
X006709Y005711D01*
X006918Y005764D02*
X006918Y005871D01*
X006971Y005924D01*
X007131Y005924D01*
X007131Y006031D02*
X007131Y005711D01*
X006971Y005711D01*
X006918Y005764D01*
X006394Y005711D02*
X006394Y006031D01*
X006288Y005924D01*
X006181Y006031D01*
X006181Y005711D01*
X006026Y005711D02*
X006026Y006031D01*
X005813Y006031D01*
X005658Y006031D02*
X005658Y005711D01*
X005498Y005711D01*
X005444Y005764D01*
X005444Y005871D01*
X005498Y005924D01*
X005658Y005924D01*
X005551Y005924D02*
X005444Y006031D01*
X005919Y005871D02*
X006026Y005871D01*
X006026Y005711D02*
X005813Y005711D01*
X005455Y006499D02*
X004983Y006499D01*
X004983Y007129D01*
X005455Y007050D02*
X005455Y006499D01*
X005455Y007050D02*
X007187Y007050D01*
X007187Y006499D01*
X007660Y006499D01*
X007660Y007129D01*
X008261Y007011D02*
X008474Y006798D01*
X008421Y006851D02*
X008581Y007011D01*
X008581Y006798D02*
X008261Y006798D01*
X008314Y006643D02*
X008421Y006643D01*
X008474Y006590D01*
X008474Y006429D01*
X008581Y006429D02*
X008261Y006429D01*
X008261Y006590D01*
X008314Y006643D01*
X008721Y006771D02*
X008971Y007021D01*
X008721Y007271D01*
X008721Y007771D01*
X008971Y008021D01*
X009471Y008021D01*
X009721Y007771D01*
X009721Y007271D01*
X009471Y007021D01*
X009721Y006771D01*
X009721Y006271D01*
X009471Y006021D01*
X008971Y006021D01*
X008721Y006271D01*
X008721Y006771D01*
X008971Y007021D02*
X009471Y007021D01*
X008581Y006221D02*
X008581Y006114D01*
X008528Y006061D01*
X008421Y006114D02*
X008421Y006221D01*
X008474Y006275D01*
X008528Y006275D01*
X008581Y006221D01*
X008421Y006114D02*
X008368Y006061D01*
X008314Y006061D01*
X008261Y006114D01*
X008261Y006221D01*
X008314Y006275D01*
X008335Y005731D02*
X008174Y005731D01*
X008174Y005411D01*
X008174Y005518D02*
X008335Y005518D01*
X008388Y005571D01*
X008388Y005678D01*
X008335Y005731D01*
X008543Y005571D02*
X008756Y005571D01*
X008650Y005678D02*
X008650Y005464D01*
X008020Y005464D02*
X007966Y005411D01*
X007860Y005411D01*
X007806Y005464D01*
X007860Y005571D02*
X007966Y005571D01*
X008020Y005518D01*
X008020Y005464D01*
X007860Y005571D02*
X007806Y005625D01*
X007806Y005678D01*
X007860Y005731D01*
X007966Y005731D01*
X008020Y005678D01*
X009832Y005452D02*
X009832Y003090D01*
X009852Y003090D02*
X010088Y003090D01*
X010226Y003681D02*
X010226Y004862D01*
X010816Y004862D01*
X010816Y003681D01*
X010226Y003681D01*
X010954Y003090D02*
X011190Y003090D01*
X011210Y003090D02*
X011210Y005452D01*
X011190Y005452D02*
X010954Y005452D01*
X011361Y004856D02*
X011681Y004856D01*
X011361Y004643D01*
X011681Y004643D01*
X011681Y004504D02*
X011681Y004397D01*
X011681Y004451D02*
X011361Y004451D01*
X011361Y004504D02*
X011361Y004397D01*
X011468Y004242D02*
X011681Y004242D01*
X011521Y004242D02*
X011521Y004029D01*
X011468Y004029D02*
X011361Y004136D01*
X011468Y004242D01*
X011468Y004029D02*
X011681Y004029D01*
X011628Y003874D02*
X011521Y003874D01*
X011521Y003767D01*
X011414Y003661D02*
X011628Y003661D01*
X011681Y003714D01*
X011681Y003821D01*
X011628Y003874D01*
X011414Y003874D02*
X011361Y003821D01*
X011361Y003714D01*
X011414Y003661D01*
X010088Y005452D02*
X009852Y005452D01*
X006645Y003778D02*
X006592Y003831D01*
X006485Y003831D01*
X006432Y003778D01*
X006645Y003778D02*
X006645Y003725D01*
X006432Y003511D01*
X006645Y003511D01*
X006301Y003511D02*
X006248Y003511D01*
X006248Y003564D01*
X006301Y003564D01*
X006301Y003511D01*
X006093Y003564D02*
X006040Y003511D01*
X005933Y003511D01*
X005879Y003564D01*
X006093Y003778D01*
X006093Y003564D01*
X005879Y003564D02*
X005879Y003778D01*
X005933Y003831D01*
X006040Y003831D01*
X006093Y003778D01*
X005725Y003778D02*
X005725Y003671D01*
X005671Y003618D01*
X005511Y003618D01*
X005618Y003618D02*
X005725Y003511D01*
X005511Y003511D02*
X005511Y003831D01*
X005671Y003831D01*
X005725Y003778D01*
X004481Y002981D02*
X004268Y002981D01*
X004161Y002874D01*
X004268Y002768D01*
X004481Y002768D01*
X004428Y002613D02*
X004214Y002613D01*
X004161Y002559D01*
X004161Y002453D01*
X004214Y002399D01*
X004428Y002399D01*
X004481Y002453D01*
X004481Y002559D01*
X004428Y002613D01*
X004481Y002244D02*
X004161Y002244D01*
X004161Y002031D01*
X003811Y002361D02*
X004025Y002521D01*
X003811Y002681D01*
X005111Y002661D02*
X005111Y002501D01*
X005151Y002461D01*
X005231Y002461D01*
X005271Y002501D01*
X005406Y002501D02*
X005446Y002461D01*
X005526Y002461D01*
X005566Y002501D01*
X005700Y002581D02*
X005861Y002581D01*
X005995Y002581D02*
X006115Y002581D01*
X006155Y002541D01*
X006155Y002501D01*
X006115Y002461D01*
X005995Y002461D01*
X005995Y002701D01*
X006115Y002701D01*
X006155Y002661D01*
X006155Y002621D01*
X006115Y002581D01*
X006290Y002661D02*
X006370Y002581D01*
X006370Y002461D01*
X006370Y002581D02*
X006450Y002661D01*
X006450Y002701D01*
X006584Y002581D02*
X006744Y002581D01*
X006879Y002621D02*
X006879Y002661D01*
X006919Y002701D01*
X006999Y002701D01*
X007039Y002661D01*
X006999Y002581D02*
X006919Y002581D01*
X006879Y002621D01*
X006879Y002501D02*
X006919Y002461D01*
X006999Y002461D01*
X007039Y002501D01*
X007039Y002541D01*
X006999Y002581D01*
X007174Y002581D02*
X007334Y002581D01*
X007334Y002621D02*
X007334Y002461D01*
X007334Y002621D02*
X007254Y002701D01*
X007174Y002621D01*
X007174Y002461D01*
X006645Y002027D02*
X006511Y002027D01*
X006657Y001948D02*
X005786Y001948D01*
X005798Y002027D02*
X005931Y002027D01*
X006131Y002027D02*
X006311Y002027D01*
X006303Y002105D02*
X006139Y002105D01*
X006147Y002184D02*
X006295Y002184D01*
X006290Y002661D02*
X006290Y002701D01*
X005566Y002661D02*
X005526Y002701D01*
X005446Y002701D01*
X005406Y002661D01*
X005406Y002501D01*
X005271Y002661D02*
X005231Y002701D01*
X005151Y002701D01*
X005111Y002661D01*
X004228Y004031D02*
X004014Y004031D01*
X003961Y004084D01*
X003961Y004244D01*
X004281Y004244D01*
X004281Y004084D01*
X004228Y004031D01*
X004281Y004399D02*
X003961Y004399D01*
X004281Y004613D01*
X003961Y004613D01*
X004014Y004768D02*
X004121Y004768D01*
X004121Y004874D01*
X004014Y004768D02*
X003961Y004821D01*
X003961Y004928D01*
X004014Y004981D01*
X004228Y004981D01*
X004281Y004928D01*
X004281Y004821D01*
X004228Y004768D01*
X004181Y006104D02*
X003861Y006104D01*
X004181Y006317D01*
X003861Y006317D01*
X003861Y006456D02*
X003861Y006563D01*
X003861Y006509D02*
X004181Y006509D01*
X004181Y006456D02*
X004181Y006563D01*
X004075Y006718D02*
X003861Y006718D01*
X003721Y006771D02*
X003721Y006271D01*
X003471Y006021D01*
X002971Y006021D01*
X002721Y006271D01*
X002721Y006771D01*
X002971Y007021D01*
X002721Y007271D01*
X002721Y007771D01*
X002971Y008021D01*
X003471Y008021D01*
X003721Y007771D01*
X003721Y007271D01*
X003471Y007021D01*
X003721Y006771D01*
X003861Y006931D02*
X004075Y006931D01*
X004181Y006824D01*
X004075Y006718D01*
X004021Y006718D02*
X004021Y006931D01*
X003471Y007021D02*
X002971Y007021D01*
X003767Y007966D02*
X003767Y008179D01*
X003660Y008072D02*
X003874Y008072D01*
X004983Y008192D02*
X007660Y008192D01*
X008523Y008035D02*
X008736Y008035D01*
X008630Y007928D02*
X008630Y008142D01*
X002221Y004721D02*
X002221Y003821D01*
X001721Y002971D02*
X001021Y002971D01*
X000971Y003021D01*
X000971Y003471D01*
X000971Y003721D01*
X000871Y003821D02*
X000871Y003471D01*
X000821Y003521D01*
X000821Y003871D01*
X000681Y003994D02*
X000361Y003994D01*
X000361Y003781D01*
X000414Y004149D02*
X000628Y004149D01*
X000681Y004203D01*
X000681Y004309D01*
X000628Y004363D01*
X000414Y004363D01*
X000361Y004309D01*
X000361Y004203D01*
X000414Y004149D01*
X000468Y004518D02*
X000681Y004518D01*
X000821Y004671D02*
X000821Y005021D01*
X000871Y005071D01*
X000871Y004721D01*
X000971Y004821D02*
X000971Y005071D01*
X000971Y005521D01*
X001021Y005571D01*
X001721Y005571D01*
X000971Y005071D02*
X000871Y005071D01*
X000681Y004731D02*
X000468Y004731D01*
X000361Y004624D01*
X000468Y004518D01*
X000871Y003471D02*
X000971Y003471D01*
X004532Y000981D02*
X004812Y000981D01*
X004812Y000911D01*
X004532Y000631D01*
X004532Y000561D01*
D11*
X004321Y001521D02*
X003721Y001521D01*
X004321Y001521D02*
X004321Y001821D01*
X004321Y003221D02*
X004321Y003521D01*
X004121Y003521D01*
X004121Y003821D01*
X004121Y003521D02*
X003721Y003521D01*
X004121Y005221D02*
X004121Y005521D01*
X003721Y005521D01*
M02*
