G75*
%MOIN*%
%OFA0B0*%
%FSLAX24Y24*%
%IPPOS*%
%LPD*%
%AMOC8*
5,1,8,0,0,1.08239X$1,22.5*
%
%ADD10C,0.0160*%
%ADD11C,0.0080*%
D10*
X003650Y001150D02*
X004250Y001150D01*
X004250Y001450D01*
X004250Y002850D02*
X004250Y003150D01*
X004050Y003150D01*
X004050Y003450D01*
X004050Y003150D02*
X003650Y003150D01*
X004050Y004850D02*
X004050Y005150D01*
X003650Y005150D01*
D11*
X003764Y005590D02*
X003764Y005910D01*
X003978Y005590D01*
X003978Y005910D01*
X004117Y005910D02*
X004223Y005910D01*
X004170Y005910D02*
X004170Y005590D01*
X004223Y005590D02*
X004117Y005590D01*
X004378Y005696D02*
X004378Y005910D01*
X004400Y006050D02*
X004150Y006300D01*
X003900Y006050D01*
X003400Y006050D01*
X003150Y006300D01*
X003150Y006800D01*
X003400Y007050D01*
X003900Y007050D01*
X004150Y006800D01*
X004400Y007050D01*
X004900Y007050D01*
X005150Y006800D01*
X005150Y006300D01*
X004900Y006050D01*
X004400Y006050D01*
X004592Y005910D02*
X004592Y005696D01*
X004485Y005590D01*
X004378Y005696D01*
X004378Y005750D02*
X004592Y005750D01*
X004746Y005750D02*
X004960Y005750D01*
X004853Y005643D02*
X004853Y005857D01*
X005323Y005750D02*
X005537Y005750D01*
X005692Y005750D02*
X005692Y005643D01*
X005745Y005590D01*
X005905Y005590D01*
X005905Y005910D01*
X005905Y005803D02*
X005745Y005803D01*
X005692Y005750D01*
X005798Y005803D02*
X005692Y005910D01*
X005900Y006050D02*
X005400Y006050D01*
X005150Y006300D01*
X005150Y006800D02*
X005400Y007050D01*
X005900Y007050D01*
X006150Y006800D01*
X006400Y007050D01*
X006900Y007050D01*
X007150Y006800D01*
X007400Y007050D01*
X007900Y007050D01*
X008150Y006800D01*
X008400Y007050D01*
X008900Y007050D01*
X009150Y006800D01*
X009150Y006300D01*
X008900Y006050D01*
X008400Y006050D01*
X008150Y006300D01*
X007900Y006050D01*
X007400Y006050D01*
X007150Y006300D01*
X007150Y006800D01*
X007150Y006300D02*
X006900Y006050D01*
X006400Y006050D01*
X006150Y006300D01*
X005900Y006050D01*
X006060Y005910D02*
X006060Y005590D01*
X006273Y005590D02*
X006273Y005910D01*
X006167Y005803D01*
X006060Y005910D01*
X006428Y005750D02*
X006428Y005643D01*
X006482Y005590D01*
X006642Y005590D01*
X006642Y005910D01*
X006642Y005803D02*
X006482Y005803D01*
X006428Y005750D01*
X006796Y005750D02*
X007010Y005750D01*
X006903Y005643D02*
X006903Y005857D01*
X007273Y005750D02*
X007487Y005750D01*
X007642Y005910D02*
X007802Y005750D01*
X007855Y005803D02*
X007642Y005590D01*
X007855Y005590D02*
X007855Y005910D01*
X008010Y005750D02*
X008063Y005803D01*
X008223Y005803D01*
X008223Y005910D02*
X008223Y005590D01*
X008063Y005590D01*
X008010Y005643D01*
X008010Y005750D01*
X008378Y005803D02*
X008432Y005750D01*
X008538Y005750D01*
X008592Y005696D01*
X008592Y005643D01*
X008538Y005590D01*
X008432Y005590D01*
X008378Y005643D01*
X008378Y005803D02*
X008378Y005857D01*
X008432Y005910D01*
X008538Y005910D01*
X008592Y005857D01*
X008746Y005750D02*
X008960Y005750D01*
X008853Y005643D02*
X008853Y005857D01*
X008150Y006300D02*
X008150Y006800D01*
X006150Y006800D02*
X006150Y006300D01*
X007585Y005257D02*
X007585Y005204D01*
X007638Y005150D01*
X007745Y005150D01*
X007799Y005097D01*
X007799Y005043D01*
X007745Y004990D01*
X007638Y004990D01*
X007585Y005043D01*
X007585Y005257D02*
X007638Y005310D01*
X007745Y005310D01*
X007799Y005257D01*
X007953Y005310D02*
X008114Y005310D01*
X008167Y005257D01*
X008167Y005150D01*
X008114Y005097D01*
X007953Y005097D01*
X007953Y004990D02*
X007953Y005310D01*
X008322Y005150D02*
X008535Y005150D01*
X008428Y005257D02*
X008428Y005043D01*
X008167Y004310D02*
X008167Y004097D01*
X008060Y003990D01*
X007953Y004097D01*
X007953Y004310D01*
X008322Y004150D02*
X008535Y004150D01*
X008428Y004257D02*
X008428Y004043D01*
X008428Y003310D02*
X008428Y002990D01*
X008322Y002990D02*
X008535Y002990D01*
X008322Y003204D02*
X008428Y003310D01*
X008375Y002310D02*
X008322Y002257D01*
X008322Y002204D01*
X008375Y002150D01*
X008482Y002150D01*
X008535Y002097D01*
X008535Y002043D01*
X008482Y001990D01*
X008375Y001990D01*
X008322Y002043D01*
X008322Y002097D01*
X008375Y002150D01*
X008482Y002150D02*
X008535Y002204D01*
X008535Y002257D01*
X008482Y002310D01*
X008375Y002310D01*
X008167Y001310D02*
X008167Y000990D01*
X007953Y001310D01*
X007953Y000990D01*
X007815Y000990D02*
X007708Y000990D01*
X007761Y000990D02*
X007761Y001310D01*
X007708Y001310D02*
X007815Y001310D01*
X008322Y001150D02*
X008535Y001150D01*
X008428Y001257D02*
X008428Y001043D01*
X010160Y002946D02*
X010440Y002946D01*
X010510Y003016D01*
X010510Y003156D01*
X010440Y003226D01*
X010300Y003226D01*
X010300Y003086D01*
X010160Y002946D02*
X010090Y003016D01*
X010090Y003156D01*
X010160Y003226D01*
X010230Y003406D02*
X010090Y003546D01*
X010230Y003687D01*
X010510Y003687D01*
X010510Y003867D02*
X010510Y004007D01*
X010510Y003937D02*
X010090Y003937D01*
X010090Y003867D02*
X010090Y004007D01*
X010090Y004174D02*
X010510Y004454D01*
X010090Y004454D01*
X010090Y004174D02*
X010510Y004174D01*
X010759Y004537D02*
X010956Y004537D01*
X010759Y004537D02*
X010759Y002963D01*
X010956Y002963D01*
X010510Y003406D02*
X010230Y003406D01*
X010300Y003406D02*
X010300Y003687D01*
X010996Y003750D02*
X010998Y003787D01*
X011004Y003824D01*
X011013Y003859D01*
X011027Y003894D01*
X011043Y003927D01*
X011064Y003958D01*
X011087Y003987D01*
X011113Y004013D01*
X011142Y004036D01*
X011173Y004057D01*
X011206Y004073D01*
X011241Y004087D01*
X011276Y004096D01*
X011313Y004102D01*
X011350Y004104D01*
X011387Y004102D01*
X011424Y004096D01*
X011459Y004087D01*
X011494Y004073D01*
X011527Y004057D01*
X011558Y004036D01*
X011587Y004013D01*
X011613Y003987D01*
X011636Y003958D01*
X011657Y003927D01*
X011673Y003894D01*
X011687Y003859D01*
X011696Y003824D01*
X011702Y003787D01*
X011704Y003750D01*
X011702Y003713D01*
X011696Y003676D01*
X011687Y003641D01*
X011673Y003606D01*
X011657Y003573D01*
X011636Y003542D01*
X011613Y003513D01*
X011587Y003487D01*
X011558Y003464D01*
X011527Y003443D01*
X011494Y003427D01*
X011459Y003413D01*
X011424Y003404D01*
X011387Y003398D01*
X011350Y003396D01*
X011313Y003398D01*
X011276Y003404D01*
X011241Y003413D01*
X011206Y003427D01*
X011173Y003443D01*
X011142Y003464D01*
X011113Y003487D01*
X011087Y003513D01*
X011064Y003542D01*
X011043Y003573D01*
X011027Y003606D01*
X011013Y003641D01*
X011004Y003676D01*
X010998Y003713D01*
X010996Y003750D01*
X011744Y004537D02*
X011941Y004537D01*
X011941Y002963D01*
X011744Y002963D01*
X004574Y002616D02*
X004361Y002616D01*
X004254Y002510D01*
X004361Y002403D01*
X004574Y002403D01*
X004521Y002248D02*
X004307Y002248D01*
X004254Y002195D01*
X004254Y002088D01*
X004307Y002034D01*
X004521Y002034D01*
X004574Y002088D01*
X004574Y002195D01*
X004521Y002248D01*
X004574Y001880D02*
X004254Y001880D01*
X004254Y001666D01*
X003997Y002114D02*
X003784Y001954D01*
X003997Y002114D02*
X003784Y002274D01*
X001990Y003200D02*
X001990Y003480D01*
X002410Y003480D01*
X002340Y003660D02*
X002410Y003730D01*
X002410Y003870D01*
X002340Y003940D01*
X002060Y003940D01*
X001990Y003870D01*
X001990Y003730D01*
X002060Y003660D01*
X002340Y003660D01*
X002410Y004120D02*
X002130Y004120D01*
X001990Y004260D01*
X002130Y004401D01*
X002410Y004401D01*
X001650Y004200D02*
X001650Y003300D01*
X000400Y003200D02*
X000400Y002950D01*
X000400Y002500D01*
X000450Y002450D01*
X001150Y002450D01*
X000400Y002950D02*
X000300Y002950D01*
X000300Y003300D01*
X000250Y003350D02*
X000250Y003000D01*
X000300Y002950D01*
X000250Y004150D02*
X000250Y004500D01*
X000300Y004550D01*
X000300Y004200D01*
X000400Y004300D02*
X000400Y004550D01*
X000400Y005000D01*
X000450Y005050D01*
X001150Y005050D01*
X000400Y004550D02*
X000300Y004550D01*
X003396Y005750D02*
X003610Y005750D01*
X004150Y006300D02*
X004150Y006800D01*
X004043Y004610D02*
X003990Y004557D01*
X003990Y004450D01*
X004043Y004396D01*
X004150Y004396D01*
X004150Y004503D01*
X004257Y004610D02*
X004043Y004610D01*
X004257Y004610D02*
X004310Y004557D01*
X004310Y004450D01*
X004257Y004396D01*
X004310Y004242D02*
X003990Y004242D01*
X003990Y004028D02*
X004310Y004028D01*
X004310Y003873D02*
X004310Y003713D01*
X004257Y003660D01*
X004043Y003660D01*
X003990Y003713D01*
X003990Y003873D01*
X004310Y003873D01*
X003990Y004028D02*
X004310Y004242D01*
M02*
