G75*
%MOIN*%
%OFA0B0*%
%FSLAX24Y24*%
%IPPOS*%
%LPD*%
%AMOC8*
5,1,8,0,0,1.08239X$1,22.5*
%
%ADD10C,0.0000*%
D10*
X001221Y000221D02*
X011421Y000221D01*
X011481Y000223D01*
X011542Y000228D01*
X011601Y000237D01*
X011660Y000250D01*
X011719Y000266D01*
X011776Y000286D01*
X011831Y000309D01*
X011886Y000336D01*
X011938Y000365D01*
X011989Y000398D01*
X012038Y000434D01*
X012084Y000472D01*
X012128Y000514D01*
X012170Y000558D01*
X012208Y000604D01*
X012244Y000653D01*
X012277Y000704D01*
X012306Y000756D01*
X012333Y000811D01*
X012356Y000866D01*
X012376Y000923D01*
X012392Y000982D01*
X012405Y001041D01*
X012414Y001100D01*
X012419Y001161D01*
X012421Y001221D01*
X012421Y007621D01*
X012419Y007681D01*
X012414Y007742D01*
X012405Y007801D01*
X012392Y007860D01*
X012376Y007919D01*
X012356Y007976D01*
X012333Y008031D01*
X012306Y008086D01*
X012277Y008138D01*
X012244Y008189D01*
X012208Y008238D01*
X012170Y008284D01*
X012128Y008328D01*
X012084Y008370D01*
X012038Y008408D01*
X011989Y008444D01*
X011938Y008477D01*
X011886Y008506D01*
X011831Y008533D01*
X011776Y008556D01*
X011719Y008576D01*
X011660Y008592D01*
X011601Y008605D01*
X011542Y008614D01*
X011481Y008619D01*
X011421Y008621D01*
X001221Y008621D01*
X001161Y008619D01*
X001100Y008614D01*
X001041Y008605D01*
X000982Y008592D01*
X000923Y008576D01*
X000866Y008556D01*
X000811Y008533D01*
X000756Y008506D01*
X000704Y008477D01*
X000653Y008444D01*
X000604Y008408D01*
X000558Y008370D01*
X000514Y008328D01*
X000472Y008284D01*
X000434Y008238D01*
X000398Y008189D01*
X000365Y008138D01*
X000336Y008086D01*
X000309Y008031D01*
X000286Y007976D01*
X000266Y007919D01*
X000250Y007860D01*
X000237Y007801D01*
X000228Y007742D01*
X000223Y007681D01*
X000221Y007621D01*
X000221Y001221D01*
X000223Y001161D01*
X000228Y001100D01*
X000237Y001041D01*
X000250Y000982D01*
X000266Y000923D01*
X000286Y000866D01*
X000309Y000811D01*
X000336Y000756D01*
X000365Y000704D01*
X000398Y000653D01*
X000434Y000604D01*
X000472Y000558D01*
X000514Y000514D01*
X000558Y000472D01*
X000604Y000434D01*
X000653Y000398D01*
X000704Y000365D01*
X000756Y000336D01*
X000811Y000309D01*
X000866Y000286D01*
X000923Y000266D01*
X000982Y000250D01*
X001041Y000237D01*
X001100Y000228D01*
X001161Y000223D01*
X001221Y000221D01*
M02*
