G75*
%MOIN*%
%OFA0B0*%
%FSLAX24Y24*%
%IPPOS*%
%LPD*%
%AMOC8*
5,1,8,0,0,1.08239X$1,22.5*
%
%ADD10C,0.0000*%
D10*
X001150Y000150D02*
X011150Y000150D01*
X011210Y000152D01*
X011271Y000157D01*
X011330Y000166D01*
X011389Y000179D01*
X011448Y000195D01*
X011505Y000215D01*
X011560Y000238D01*
X011615Y000265D01*
X011667Y000294D01*
X011718Y000327D01*
X011767Y000363D01*
X011813Y000401D01*
X011857Y000443D01*
X011899Y000487D01*
X011937Y000533D01*
X011973Y000582D01*
X012006Y000633D01*
X012035Y000685D01*
X012062Y000740D01*
X012085Y000795D01*
X012105Y000852D01*
X012121Y000911D01*
X012134Y000970D01*
X012143Y001029D01*
X012148Y001090D01*
X012150Y001150D01*
X012150Y006350D01*
X012148Y006410D01*
X012143Y006471D01*
X012134Y006530D01*
X012121Y006589D01*
X012105Y006648D01*
X012085Y006705D01*
X012062Y006760D01*
X012035Y006815D01*
X012006Y006867D01*
X011973Y006918D01*
X011937Y006967D01*
X011899Y007013D01*
X011857Y007057D01*
X011813Y007099D01*
X011767Y007137D01*
X011718Y007173D01*
X011667Y007206D01*
X011615Y007235D01*
X011560Y007262D01*
X011505Y007285D01*
X011448Y007305D01*
X011389Y007321D01*
X011330Y007334D01*
X011271Y007343D01*
X011210Y007348D01*
X011150Y007350D01*
X001150Y007350D01*
X001090Y007348D01*
X001029Y007343D01*
X000970Y007334D01*
X000911Y007321D01*
X000852Y007305D01*
X000795Y007285D01*
X000740Y007262D01*
X000685Y007235D01*
X000633Y007206D01*
X000582Y007173D01*
X000533Y007137D01*
X000487Y007099D01*
X000443Y007057D01*
X000401Y007013D01*
X000363Y006967D01*
X000327Y006918D01*
X000294Y006867D01*
X000265Y006815D01*
X000238Y006760D01*
X000215Y006705D01*
X000195Y006648D01*
X000179Y006589D01*
X000166Y006530D01*
X000157Y006471D01*
X000152Y006410D01*
X000150Y006350D01*
X000150Y001150D01*
X000152Y001090D01*
X000157Y001029D01*
X000166Y000970D01*
X000179Y000911D01*
X000195Y000852D01*
X000215Y000795D01*
X000238Y000740D01*
X000265Y000685D01*
X000294Y000633D01*
X000327Y000582D01*
X000363Y000533D01*
X000401Y000487D01*
X000443Y000443D01*
X000487Y000401D01*
X000533Y000363D01*
X000582Y000327D01*
X000633Y000294D01*
X000685Y000265D01*
X000740Y000238D01*
X000795Y000215D01*
X000852Y000195D01*
X000911Y000179D01*
X000970Y000166D01*
X001029Y000157D01*
X001090Y000152D01*
X001150Y000150D01*
M02*
