%
M48
M72
T01C0.0400
T02C0.0472
T03C0.1260
%
T01
X3221Y1521
X3221Y2521
X2221Y3271
X3221Y3521
X3221Y4521
X2221Y5271
X3221Y5521
X3221Y6521
X3221Y7521
X1221Y4271
X9221Y4521
X9221Y5521
X9221Y6521
X9221Y7521
X9221Y3521
X9221Y2521
X9221Y1521
T02
X10521Y2893
X10521Y5649
T03
X1321Y1321
X1321Y7221
X11321Y7221
X11321Y1321
M30
